<svg xmlns="http://www.w3.org/2000/svg" viewBox="0 0 512 512" width="512" height="512">
  <!-- Background -->
  <rect width="512" height="512" rx="96" fill="#09090b"/>
  <!-- Outer ring -->
  <circle cx="256" cy="256" r="200" fill="none" stroke="#6366f1" stroke-width="12"/>
  <!-- Inner brain / network nodes -->
  <circle cx="256" cy="256" r="48" fill="#6366f1"/>
  <!-- Satellite nodes -->
  <circle cx="256" cy="116" r="22" fill="#818cf8"/>
  <circle cx="256" cy="396" r="22" fill="#818cf8"/>
  <circle cx="116" cy="256" r="22" fill="#818cf8"/>
  <circle cx="396" cy="256" r="22" fill="#818cf8"/>
  <circle cx="155" cy="155" r="18" fill="#a5b4fc"/>
  <circle cx="357" cy="155" r="18" fill="#a5b4fc"/>
  <circle cx="155" cy="357" r="18" fill="#a5b4fc"/>
  <circle cx="357" cy="357" r="18" fill="#a5b4fc"/>
  <!-- Connection lines -->
  <line x1="256" y1="208" x2="256" y2="138" stroke="#6366f1" stroke-width="4" opacity="0.7"/>
  <line x1="256" y1="304" x2="256" y2="374" stroke="#6366f1" stroke-width="4" opacity="0.7"/>
  <line x1="208" y1="256" x2="138" y2="256" stroke="#6366f1" stroke-width="4" opacity="0.7"/>
  <line x1="304" y1="256" x2="374" y2="256" stroke="#6366f1" stroke-width="4" opacity="0.7"/>
  <line x1="222" y1="222" x2="169" y2="169" stroke="#6366f1" stroke-width="3" opacity="0.6"/>
  <line x1="290" y1="222" x2="343" y2="169" stroke="#6366f1" stroke-width="3" opacity="0.6"/>
  <line x1="222" y1="290" x2="169" y2="343" stroke="#6366f1" stroke-width="3" opacity="0.6"/>
  <line x1="290" y1="290" x2="343" y2="343" stroke="#6366f1" stroke-width="3" opacity="0.6"/>
</svg>
